# xmcd
#
# Track frame offsets:
#	150
#	13724
#	42684
#	57291
#	76983
#	93005
#	106230
#	122810
#	137197
#	155707
#
# Disc length: 2300 seconds
#
# Revision: 1
# Processed by: cddbd v1.5.2PL0 Copyright (c) Steve Scherf et al.
# Submitted via: audiograbber 1.83.01
#
DISCID=8108fa0a
DTITLE=Brothers Osborne - Port Saint Joe
DYEAR=2018
DGENRE=Country
TTITLE0=Slow Your Roll
TTITLE1=Shoot Me Straight
TTITLE2=I Don't Remember Me (Before You)
TTITLE3=Weed, Whiskey And Willie
TTITLE4=Tequila Again
TTITLE5=A Couple Wrongs Makin' It Alright
TTITLE6=Pushing Up Daisies (Love Alive)
TTITLE7=Drank Like Hank
TTITLE8=A Little Bit Trouble
TTITLE9=While You Still Can
EXTD=
EXTT0=
EXTT1=
EXTT2=
EXTT3=
EXTT4=
EXTT5=
EXTT6=
EXTT7=
EXTT8=
EXTT9=
PLAYORDER=
